<?xml version="1.0" encoding="UTF-8" standalone="no"?>
<svg width="200px" height="120px" viewBox="0 0 200 120" version="1.1" xmlns="http://www.w3.org/2000/svg" xmlns:xlink="http://www.w3.org/1999/xlink" xmlns:sketch="http://www.bohemiancoding.com/sketch/ns">
    <!-- Generator: Sketch 3.3.3 (12072) - http://www.bohemiancoding.com/sketch -->
    <title>Header-Logo</title>
    <desc>Created with Sketch.</desc>
    <defs></defs>
    <g id="iPhone" stroke="none" stroke-width="1" fill="none" fill-rule="evenodd" sketch:type="MSPage">
        <g id="Header-Logo" sketch:type="MSArtboardGroup">
            <g id="Group" sketch:type="MSLayerGroup" transform="translate(5.000000, 70.000000)" fill="#333333">
                <path d="M174.884898,33.8873171 L174.884898,43.3043902 C174.884898,44.1604878 174.75776,44.7707317 174.503851,45.1354878 C174.249576,45.4995122 173.741758,45.682439 172.98003,45.682439 L171.693631,45.682439 L171.408212,45.3970732 L171.408212,12.2470732 L171.693631,11.9617073 L172.932033,11.9617073 C173.694127,11.9617073 174.210006,12.16 174.480402,12.5562195 C174.7497,12.9528049 174.884898,13.5952439 174.884898,14.482439 L174.884898,14.7202439 C176.790132,12.5964634 179.060292,11.5340244 181.69611,11.5340244 C184.394948,11.5340244 186.42732,12.6202439 187.793226,14.7915854 C189.158033,16.9636585 189.840986,19.9684146 189.840986,23.8043902 C189.840986,25.6757317 189.594771,27.3560976 189.103074,28.8458537 C188.610278,30.3367073 187.959934,31.5967073 187.150209,32.6269512 C186.340485,33.657561 185.411683,34.4507317 184.363438,35.005 C183.315926,35.5592683 182.235804,35.8373171 181.12454,35.8373171 C178.933887,35.8373171 176.853518,35.1879268 174.884898,33.8873171 L174.884898,33.8873171 Z M174.884898,18.4395122 L174.884898,30.6945122 C176.814314,32.1260976 178.632347,32.8409756 180.33973,32.8409756 C182.046747,32.8409756 183.454055,32.0785366 184.560556,30.5521951 C185.667424,29.0265854 186.221408,26.7220732 186.221408,23.6379268 C186.221408,22.1123171 186.086209,20.7853659 185.818011,19.6563415 C185.54908,18.5284146 185.193314,17.5903659 184.750713,16.842561 C184.307747,16.0958537 183.794433,15.5393902 183.209306,15.1735366 C182.624179,14.8080488 181.999848,14.625122 181.336314,14.625122 C180.070799,14.625122 178.869036,14.9595122 177.731025,15.6268293 C176.592281,16.2941463 175.644061,17.2321951 174.884898,18.4395122 L174.884898,18.4395122 Z" id="Fill-12-Copy" sketch:type="MSShapeGroup"></path>
                <path d="M165.93103,32.6982927 L167.931526,32.6982927 C168.057565,32.9880488 168.145865,33.3107317 168.193129,33.6652439 C168.24076,34.0193902 168.264576,34.3413415 168.264576,34.6310976 C168.264576,34.8246341 168.256515,34.977561 168.24076,35.0906098 C168.224273,35.2036585 168.216945,35.292561 168.216945,35.3565854 C167.70876,35.4531707 167.216697,35.5332927 166.740755,35.5980488 C166.26408,35.6620732 165.787771,35.6946341 165.311463,35.6946341 C164.008942,35.6946341 162.913433,35.4019512 162.0253,34.8147561 C161.135702,34.2286585 160.69127,33.1903659 160.69127,31.699878 L160.69127,0.785243902 L160.977055,0.499512195 L162.263088,0.499512195 C163.025182,0.499512195 163.533,0.681341463 163.787275,1.04573171 C164.040818,1.41012195 164.168322,2.01926829 164.168322,2.87390244 L164.168322,30.6560976 C164.168322,32.0178049 164.755647,32.6982927 165.93103,32.6982927" id="Fill-11-Copy" sketch:type="MSShapeGroup"></path>
                <path d="M156.405226,24.8507317 L141.639661,24.8507317 C141.797942,30.2415854 143.846069,32.9364634 147.783675,32.9364634 C149.942818,32.9364634 152.244854,32.2702439 154.690149,30.9385366 C155.38849,31.5732927 155.817168,32.3818293 155.976548,33.3641463 C153.37224,35.1403659 150.451369,36.027561 147.212471,36.027561 C145.56078,36.027561 144.147609,35.7184146 142.972959,35.100122 C141.797942,34.4818293 140.836898,33.6257317 140.091292,32.5318293 C139.344953,31.4379268 138.797198,30.1464634 138.448394,28.6556098 C138.09849,27.1654878 137.924088,25.5330488 137.924088,23.7568293 C137.924088,21.9495122 138.138427,20.3009756 138.567105,18.8104878 C138.995782,17.3207317 139.622678,16.0362195 140.44889,14.9580488 C141.274003,13.8806098 142.26619,13.0402439 143.425818,12.4373171 C144.584347,11.8354878 145.90995,11.5340244 147.402628,11.5340244 C148.863063,11.5340244 150.172912,11.7952439 151.33254,12.3184146 C152.491069,12.8415854 153.459441,13.555 154.238022,14.4590244 C155.015504,15.3623171 155.61089,16.4408537 156.024179,17.6928049 C156.436369,18.9458537 156.643014,20.284878 156.643014,21.7117073 C156.643014,22.282439 156.619565,22.8293902 156.571934,23.352561 C156.524303,23.8757317 156.468245,24.375122 156.405226,24.8507317 L156.405226,24.8507317 Z M141.639661,22.1397561 L153.023069,22.1397561 L153.023069,21.5214634 C153.023069,19.3336585 152.563981,17.5739024 151.646904,16.242561 C150.730193,14.9104878 149.35476,14.2446341 147.521339,14.2446341 C145.718694,14.2446341 144.318713,14.9580488 143.323229,16.384878 C142.327377,17.8117073 141.766066,19.7306098 141.639661,22.1397561 L141.639661,22.1397561 Z" id="Fill-10-Copy" sketch:type="MSShapeGroup"></path>
                <path d="M133.304628,19.1909756 L133.304628,30.9385366 C133.304628,32.7458537 133.495152,34.0940244 133.876198,34.9812195 C133.336138,35.4879268 132.590165,35.7421951 131.637548,35.7421951 C130.430289,35.7421951 129.827942,34.9654878 129.827942,33.4117073 L129.827942,20.284878 C129.827942,18.3513415 129.572934,16.9793902 129.065482,16.1708537 C128.557298,15.3623171 127.6677,14.9580488 126.398154,14.9580488 C125.12751,14.9580488 123.809967,15.2993902 122.444793,15.9806098 C121.079253,16.6629268 119.936113,17.5428049 119.015372,18.6206098 L119.015372,35.4568293 C118.539063,35.5519512 117.951372,35.5995122 117.25303,35.5995122 C116.586198,35.5995122 116.014628,35.5519512 115.538686,35.4568293 L115.538686,0.785243902 L115.824105,0.499512195 L117.110504,0.499512195 C117.872231,0.499512195 118.379683,0.682073171 118.634325,1.04646341 C118.888234,1.41121951 119.015372,2.02146341 119.015372,2.87756098 L119.015372,15.1482927 C120.094394,14.1341463 121.365039,13.309878 122.82584,12.6754878 C124.286275,12.0410976 125.747077,11.7239024 127.207879,11.7239024 C129.335146,11.7239024 130.882782,12.4135366 131.851887,13.7928049 C132.819893,15.1720732 133.304628,16.9720732 133.304628,19.1909756" id="Fill-9-Copy" sketch:type="MSShapeGroup"></path>
                <path d="M110.346923,19.1434146 L110.346923,30.9385366 C110.346923,32.7458537 110.520592,34.0940244 110.870496,34.9812195 C110.362311,35.4879268 109.615972,35.7421951 108.631846,35.7421951 C107.424587,35.7421951 106.82224,34.9654878 106.82224,33.4117073 L106.82224,20.2373171 C106.82224,18.3034146 106.583719,16.9318293 106.10741,16.1232927 C105.631468,15.3147561 104.726116,14.9104878 103.392452,14.9104878 C102.121807,14.9104878 100.804264,15.2518293 99.4390909,15.9330488 C98.073551,16.6153659 96.9300441,17.494878 96.0096694,18.5726829 L96.0096694,35.4568293 C95.5333609,35.5519512 94.945303,35.5995122 94.2473278,35.5995122 C93.5486198,35.5995122 92.9612948,35.5519512 92.4853526,35.4568293 L92.4853526,12.2470732 L92.7707713,11.9617073 L94.1048017,11.9617073 C94.8668953,11.9617073 95.3739807,12.16 95.6286226,12.5562195 C95.8825317,12.9528049 96.0096694,13.5787805 96.0096694,14.434878 L96.0096694,15.1010976 C97.0886915,14.0862195 98.3593361,13.27 99.8201377,12.6513415 C101.280573,12.0330488 102.741375,11.7239024 104.202176,11.7239024 C106.329444,11.7239024 107.885507,12.4062195 108.87,13.7690244 C109.854127,15.132561 110.346923,16.9245122 110.346923,19.1434146" id="Fill-8-Copy" sketch:type="MSShapeGroup"></path>
                <path d="M88.0560496,24.8507317 L73.2904848,24.8507317 C73.4487658,30.2415854 75.4968926,32.9364634 79.4344986,32.9364634 C81.5936419,32.9364634 83.8956777,32.2702439 86.3409725,30.9385366 C87.039314,31.5732927 87.4679917,32.3818293 87.6273719,33.3641463 C85.0230634,35.1403659 82.1021928,36.027561 78.8632948,36.027561 C77.2116033,36.027561 75.7984325,35.7184146 74.6241488,35.100122 C73.4487658,34.4818293 72.4880882,33.6257317 71.7421157,32.5318293 C70.9957769,31.4379268 70.448022,30.1464634 70.0992176,28.6556098 C69.749314,27.1654878 69.5749118,25.5330488 69.5749118,23.7568293 C69.5749118,21.9495122 69.7892507,20.3009756 70.2179284,18.8104878 C70.6466061,17.3207317 71.2735014,16.0362195 72.0997135,14.9580488 C72.9248264,13.8806098 73.9170138,13.0402439 75.0766419,12.4373171 C76.2351708,11.8354878 77.5607741,11.5340244 79.0534518,11.5340244 C80.5138871,11.5340244 81.8237355,11.7952439 82.9833636,12.3184146 C84.1418926,12.8415854 85.1102645,13.555 85.8888457,14.4590244 C86.6663278,15.3623171 87.2617135,16.4408537 87.6750028,17.6928049 C88.0871928,18.9458537 88.2938375,20.284878 88.2938375,21.7117073 C88.2938375,22.282439 88.2703884,22.8293902 88.2227576,23.352561 C88.1751267,23.8757317 88.1194353,24.375122 88.0560496,24.8507317 L88.0560496,24.8507317 Z M73.2904848,22.1397561 L84.6738926,22.1397561 L84.6738926,21.5214634 C84.6738926,19.3336585 84.2148044,17.5739024 83.2977273,16.242561 C82.3810165,14.9104878 81.005584,14.2446341 79.1721625,14.2446341 C77.3695179,14.2446341 75.9695372,14.9580488 74.9740523,16.384878 C73.9782011,17.8117073 73.4168898,19.7306098 73.2904848,22.1397561 L73.2904848,22.1397561 Z" id="Fill-7-Copy" sketch:type="MSShapeGroup"></path>
                <path d="M51.9998595,33.8873171 L51.9998595,43.3043902 C51.9998595,44.1604878 51.8727218,44.7707317 51.6188127,45.1354878 C51.3641708,45.4995122 50.8563526,45.682439 50.0946253,45.682439 L48.8085923,45.682439 L48.5228072,45.3970732 L48.5228072,12.2470732 L48.8085923,11.9617073 L50.0469945,11.9617073 C50.8090882,11.9617073 51.3249669,12.16 51.5949972,12.5562195 C51.8642948,12.9528049 51.9998595,13.5952439 51.9998595,14.482439 L51.9998595,14.7202439 C53.9050937,12.5964634 56.1748871,11.5340244 58.8107052,11.5340244 C61.5099091,11.5340244 63.542281,12.6202439 64.9078209,14.7915854 C66.2729945,16.9636585 66.9559477,19.9684146 66.9559477,23.8043902 C66.9559477,25.6757317 66.7097328,27.3560976 66.2176694,28.8458537 C65.7252397,30.3367073 65.0745289,31.5967073 64.2648044,32.6269512 C63.4550799,33.657561 62.5262782,34.4507317 61.4783994,35.005 C60.4305207,35.5592683 59.3503994,35.8373171 58.2395014,35.8373171 C56.0484821,35.8373171 53.9684793,35.1879268 51.9998595,33.8873171 L51.9998595,33.8873171 Z M51.9998595,18.4395122 L51.9998595,30.6945122 C53.9289091,32.1260976 55.7469421,32.8409756 57.4543251,32.8409756 C59.1613416,32.8409756 60.5686501,32.0785366 61.6755179,30.5521951 C62.7820193,29.0265854 63.3360028,26.7220732 63.3360028,23.6379268 C63.3360028,22.1123171 63.2011708,20.7853659 62.9326061,19.6563415 C62.6640413,18.5284146 62.3079091,17.5903659 61.8653085,16.842561 C61.4223416,16.0958537 60.9090275,15.5393902 60.3239008,15.1735366 C59.7391405,14.8080488 59.1144435,14.625122 58.4509091,14.625122 C57.1857603,14.625122 55.9839972,14.9595122 54.8456198,15.6268293 C53.7072424,16.2941463 52.759022,17.2321951 51.9998595,18.4395122 L51.9998595,18.4395122 Z" id="Fill-6-Copy" sketch:type="MSShapeGroup"></path>
                <path d="M42.1402727,33.5068293 C40.4570716,35.1879268 38.265686,36.027561 35.5672149,36.027561 C33.9789091,36.027561 32.5737989,35.7257317 31.3518843,35.1239024 C30.1292369,34.5217073 29.0971129,33.6897561 28.2558788,32.6269512 C27.4142782,31.564878 26.7793223,30.2810976 26.3506446,28.7745122 C25.9219669,27.2690244 25.7076281,25.6117073 25.7076281,23.8043902 C25.7076281,21.9970732 25.9219669,20.3408537 26.3506446,18.8346341 C26.7793223,17.3284146 27.4142782,16.0362195 28.2558788,14.9580488 C29.0971129,13.8806098 30.1292369,13.0402439 31.3518843,12.4373171 C32.5737989,11.8354878 33.9789091,11.5340244 35.5672149,11.5340244 C37.1547879,11.5340244 38.5598981,11.8354878 39.7825455,12.4373171 C41.0048264,13.0402439 42.0369504,13.8806098 42.878551,14.9580488 C43.7194187,16.0362195 44.3628017,17.3284146 44.8076006,18.8346341 C45.2520331,20.3408537 45.4744325,21.9970732 45.4744325,23.8043902 C45.4744325,28.0537805 44.3628017,31.2879268 42.1402727,33.5068293 L42.1402727,33.5068293 Z M35.5910303,33.2690244 C37.6310964,33.2690244 39.1849614,32.4056098 40.2529917,30.6769512 C41.3199229,28.9490244 41.8544876,26.6580488 41.8544876,23.8043902 C41.8544876,22.5367073 41.7346777,21.3239024 41.4957906,20.1659756 C41.2561708,19.0087805 40.881719,17.9946341 40.3720689,17.1220732 C39.8624187,16.2502439 39.2087769,15.5606098 38.411876,15.0535366 C37.6146088,14.5464634 36.6583278,14.2921951 35.5433994,14.2921951 C34.4592479,14.2921951 33.5267824,14.5380488 32.7460028,15.0293902 C31.9644904,15.5214634 31.3189091,16.1946341 30.8096253,17.0510976 C30.2996088,17.9068293 29.925157,18.9136585 29.68627,20.0708537 C29.4466501,21.2287805 29.327573,22.4726829 29.327573,23.8043902 C29.327573,25.1360976 29.4466501,26.3726829 29.68627,27.5141463 C29.925157,28.6556098 30.2915482,29.6543902 30.7854435,30.5108537 C31.2797052,31.3665854 31.9249201,32.0404878 32.7218209,32.5318293 C33.5183554,33.0239024 34.4746364,33.2690244 35.5910303,33.2690244 L35.5910303,33.2690244 Z" id="Fill-5-Copy" sketch:type="MSShapeGroup"></path>
                <path d="M20.2780771,13.2443902 C20.2780771,12.2880488 20.1428788,11.3390244 19.8721157,10.3980488 C19.6009862,9.45743902 19.1554545,8.61158537 18.5347879,7.86231707 C17.913022,7.11341463 17.116854,6.5152439 16.145551,6.06853659 C15.1746143,5.62182927 14.0043609,5.39829268 12.635157,5.39829268 C9.92752617,5.39829268 7.83433333,6.5895122 6.35301377,8.97195122 C4.87206061,11.3543902 4.13158402,14.7363415 4.13158402,19.1196341 C4.13158402,23.5347561 4.89331129,26.9258537 6.41749862,29.2918293 C7.94168595,31.6578049 10.1008292,32.8409756 12.8956612,32.8409756 C15.72127,32.8409756 18.5794876,31.5890244 21.4688485,29.0836585 C22.4529752,29.6543902 23.1198072,30.447561 23.4693444,31.4617073 C22.1360468,32.8256098 20.492416,33.9271951 18.539551,34.7671951 C16.586686,35.6068293 14.5151102,36.027561 12.3240909,36.027561 C10.1960909,36.027561 8.37036364,35.5910976 6.84617631,34.72 C5.32235537,33.8481707 4.07589256,32.6507317 3.10715427,31.1287805 C2.13841598,29.6068293 1.42395317,27.8397561 0.964132231,25.8257317 C0.503578512,23.812439 0.273484848,21.6641463 0.273484848,19.3812195 C0.273484848,16.5597561 0.590413223,14.0862195 1.22573554,11.9617073 C1.86069146,9.83792683 2.73380165,8.07012195 3.8457989,6.65865854 C4.95669697,5.24829268 6.25848485,4.1854878 7.75152893,3.47207317 C9.24347383,2.75865854 10.847168,2.40195122 12.5622452,2.40195122 C14.2769559,2.40195122 15.8322865,2.65621951 17.2300689,3.16329268 C18.6271185,3.67036585 19.8178898,4.33658537 20.8023829,5.16085366 C21.7861433,5.98512195 22.5482369,6.93670732 23.0882975,8.01414634 C23.6279917,9.09268293 23.898022,10.2019512 23.898022,11.3434146 C23.898022,12.7702439 23.2242287,13.4840244 21.8770083,13.4840244 C21.4380716,13.4840244 20.9049725,13.4042683 20.2780771,13.2443902" id="Fill-4-Copy" sketch:type="MSShapeGroup"></path>
            </g>
            <g id="Fill-1-+-Fill-2-+-Fill-3-Copy" sketch:type="MSLayerGroup" transform="translate(64.000000, 4.000000)">
                <path d="M70.8256143,22.7689024 C70.6219008,18.1060976 68.6367934,13.5212195 64.9182893,10.1191463 C63.092562,8.44865854 61.0184215,7.21939024 58.8274022,6.42439024 C56.6371157,5.62719512 54.257405,5.23756098 51.7831653,5.3454878 C46.7449201,5.565 42.2727493,7.80292683 39.1148237,11.2441463 C35.9572645,14.685 34.1289725,18.7712195 34.3341515,24.3596341 C34.8921653,39.5564634 40.8918209,55.6302439 40.8918209,55.6302439 C40.8918209,55.6302439 55.8350854,47.1680488 66.0449421,35.8847561 C69.799719,31.7352439 71.0296942,27.4313415 70.8256143,22.7689024 L70.8256143,22.7689024 Z M57.7252975,25.5080488 C56.6862121,28.3587805 53.5293857,29.8287805 50.674832,28.7912195 C47.8199118,27.7536585 46.3477521,24.6014634 47.3868375,21.7507317 C48.4259229,18.9003659 51.5827493,17.4303659 54.4376694,18.4679268 C57.2925895,19.5054878 58.7643829,22.6576829 57.7252975,25.5080488 L57.7252975,25.5080488 Z" id="Fill-1" fill="#A60000" sketch:type="MSShapeGroup"></path>
                <path d="M37.0007466,7.09902439 C33.3328044,3.10207317 28.1381102,0.502682927 22.2857438,0.247317073 C19.4117713,0.122195122 16.6473499,0.574756098 14.1031295,1.50073171 C11.5585427,2.4245122 9.14915427,3.85207317 7.02848209,5.79219512 C2.70946281,9.74414634 0.403763085,15.069878 0.166707989,20.4856098 C-0.0699807163,25.9017073 1.35857851,30.9007317 5.71973278,35.7204878 C17.579449,48.8268293 34.9364986,58.6558537 34.9364986,58.6558537 C34.9364986,58.6558537 41.9056253,39.9856098 42.5537713,22.3339024 C42.7919256,15.8421951 40.6683223,11.0959756 37.0007466,7.09902439 L37.0007466,7.09902439 Z M23.5732424,27.4810976 C20.2570358,28.6862195 16.5905592,26.9787805 15.3836667,23.6678049 C14.1767741,20.3564634 15.8863554,16.6953659 19.202562,15.489878 C22.5184022,14.2847561 26.1852452,15.9921951 27.3921377,19.3031707 C28.5990303,22.6145122 26.8890826,26.2756098 23.5732424,27.4810976 L23.5732424,27.4810976 Z" id="Fill-2" fill="#B31212" sketch:type="MSShapeGroup"></path>
                <path d="M42.5537713,22.3339024 C42.7256088,17.655 41.6652727,13.8859756 39.6889587,10.647439 C39.4936722,10.8420732 39.3016832,11.0407317 39.1148237,11.2441463 C35.9572645,14.685 34.1289725,18.7712195 34.3341515,24.3596341 C34.6452176,32.8309756 36.6468127,41.5734146 38.3578595,47.6535366 C40.2238898,40.7191463 42.2210882,31.3928049 42.5537713,22.3339024" id="Fill-3" fill="#800000" sketch:type="MSShapeGroup"></path>
            </g>
        </g>
    </g>
</svg>