<svg xmlns="http://www.w3.org/2000/svg" width="885" height="200" viewBox="0 0 885 200">
  <g fill="none" fill-rule="evenodd">
    <path fill="#333" d="M835.056 159.624v31.39c0 2.854-.423 4.888-1.268 6.104-.847 1.214-2.537 1.823-5.072 1.823h-4.282l-.95-.95V87.49l.95-.95h4.122c2.537 0 4.254.66 5.154 1.98.896 1.323 1.346 3.464 1.346 6.42v.794c6.342-7.08 13.898-10.62 22.67-10.62 8.984 0 15.748 3.62 20.295 10.858 4.55 7.24 6.82 17.256 6.82 30.043 0 6.237-.82 11.84-2.45 16.805-1.64 4.97-3.804 9.17-6.5 12.603-2.695 3.436-5.786 6.08-9.275 7.927-3.487 1.848-7.082 2.774-10.78 2.774-7.292 0-14.216-2.164-20.77-6.5zm0-51.492v40.85c6.422 4.772 12.473 7.155 18.156 7.155 5.682 0 10.366-2.542 14.05-7.63 3.683-5.085 5.527-12.767 5.527-23.047 0-5.086-.45-9.51-1.35-13.272-.898-3.76-2.08-6.887-3.55-9.38-1.478-2.488-3.187-4.343-5.13-5.563-1.95-1.218-4.03-1.828-6.24-1.828-4.212 0-8.212 1.115-12 3.34-3.79 2.223-6.946 5.35-9.473 9.375zm-29.802 47.528h6.658c.42.967.714 2.042.87 3.224.16 1.18.24 2.254.24 3.22 0 .645-.028 1.155-.08 1.53-.055.378-.08.675-.08.888-1.69.322-3.33.59-4.913.805-1.59.213-3.18.322-4.76.322-4.34 0-7.98-.98-10.94-2.94-2.96-1.957-4.44-5.418-4.44-10.386V49.282l.95-.95h4.28c2.54 0 4.23.606 5.07 1.82.843 1.215 1.27 3.246 1.27 6.094v92.608c0 4.54 1.952 6.807 5.865 6.807M773.54 129.51H724.4c.528 17.97 7.345 26.953 20.45 26.953 7.188 0 14.85-2.22 22.99-6.66 2.323 2.116 3.75 4.81 4.28 8.085-8.668 5.92-18.39 8.88-29.17 8.88-5.498 0-10.2-1.03-14.11-3.092-3.912-2.06-7.11-4.912-9.592-8.56-2.485-3.644-4.308-7.95-5.47-12.92-1.163-4.966-1.744-10.41-1.744-16.33 0-6.022.714-11.52 2.14-16.486 1.427-4.967 3.514-9.248 6.264-12.84 2.746-3.594 6.05-6.395 9.908-8.405 3.856-2.005 8.27-3.01 13.237-3.01 4.86 0 9.22.87 13.08 2.615 3.857 1.744 7.08 4.12 9.67 7.135 2.59 3.01 4.57 6.606 5.946 10.78 1.37 4.176 2.06 8.64 2.06 13.395 0 1.9-.08 3.725-.24 5.47-.16 1.74-.35 3.407-.56 4.99zm-49.14-9.037h37.89v-2.06c0-7.294-1.528-13.16-4.58-17.597-3.05-4.443-7.63-6.66-13.73-6.66-6 0-10.66 2.376-13.975 7.132-3.315 4.756-5.183 11.152-5.604 19.183zm-27.74-9.83v39.16c0 6.024.632 10.517 1.9 13.475-1.798 1.69-4.28 2.538-7.45 2.538-4.02 0-6.024-2.59-6.024-7.768v-43.757c0-6.445-.85-11.018-2.538-13.713-1.695-2.696-4.656-4.043-8.88-4.043-4.23 0-8.616 1.14-13.16 3.41-4.545 2.278-8.35 5.21-11.414 8.8v56.12c-1.586.32-3.542.48-5.866.48-2.22 0-4.12-.16-5.705-.476V49.284l.95-.95h4.28c2.537 0 4.226.61 5.073 1.823.844 1.216 1.268 3.25 1.268 6.104v40.9c3.59-3.38 7.82-6.13 12.682-8.242 4.86-2.114 9.724-3.172 14.586-3.172 7.08 0 12.232 2.3 15.457 6.898 3.22 4.6 4.83 10.6 4.83 17.996m-76.41-.16v39.32c0 6.025.58 10.518 1.743 13.476-1.693 1.69-4.177 2.54-7.45 2.54-4.02 0-6.026-2.59-6.026-7.77V114.13c0-6.447-.793-11.02-2.38-13.714-1.583-2.69-4.596-4.04-9.035-4.04-4.23 0-8.616 1.14-13.16 3.41-4.545 2.274-8.35 5.206-11.415 8.8v56.28c-1.583.316-3.54.475-5.863.475-2.328 0-4.283-.16-5.867-.474V87.49l.95-.95h4.44c2.536 0 4.224.66 5.07 1.98.846 1.323 1.27 3.41 1.27 6.263v2.22c3.59-3.382 7.82-6.103 12.682-8.165 4.86-2.06 9.722-3.092 14.585-3.092 7.08 0 12.26 2.275 15.535 6.817 3.277 4.546 4.917 10.52 4.917 17.915m-74.193 19.024H496.9c.527 17.97 7.344 26.953 20.45 26.953 7.186 0 14.85-2.22 22.988-6.66 2.324 2.116 3.75 4.81 4.28 8.085-8.667 5.92-18.39 8.88-29.17 8.88-5.497 0-10.2-1.032-14.11-3.093-3.91-2.06-7.11-4.915-9.592-8.56-2.48-3.647-4.304-7.952-5.465-12.922-1.16-4.967-1.74-10.408-1.74-16.33 0-6.023.71-11.518 2.14-16.487 1.427-4.966 3.51-9.247 6.26-12.84s6.05-6.394 9.91-8.404c3.858-2.006 8.27-3.01 13.24-3.01 4.86 0 9.22.87 13.08 2.614 3.853 1.744 7.08 4.122 9.67 7.135 2.59 3.01 4.57 6.607 5.943 10.78 1.373 4.177 2.06 8.64 2.06 13.396 0 1.9-.077 3.72-.236 5.47-.158 1.74-.344 3.4-.555 4.99zm-49.145-9.036h37.89v-2.06c0-7.294-1.53-13.16-4.584-17.597-3.05-4.45-7.63-6.66-13.73-6.66-6 0-10.66 2.37-13.974 7.13-3.318 4.75-5.186 11.15-5.607 19.18zm-70.867 39.158v31.39c0 2.854-.423 4.888-1.268 6.104-.85 1.214-2.54 1.823-5.074 1.823h-4.282l-.95-.95V87.49l.95-.95h4.12c2.534 0 4.25.66 5.15 1.98.896 1.323 1.347 3.464 1.347 6.42v.794c6.34-7.08 13.895-10.62 22.67-10.62 8.982 0 15.75 3.62 20.292 10.858 4.543 7.24 6.816 17.256 6.816 30.043 0 6.237-.82 11.84-2.458 16.805-1.64 4.97-3.805 9.17-6.5 12.603-2.696 3.436-5.787 6.08-9.275 7.927-3.49 1.848-7.085 2.774-10.78 2.774-7.295 0-14.22-2.164-20.77-6.5zm0-51.492v40.85c6.42 4.772 12.472 7.155 18.155 7.155 5.68 0 10.365-2.542 14.05-7.63 3.682-5.085 5.526-12.767 5.526-23.047 0-5.086-.45-9.51-1.344-13.272-.896-3.76-2.08-6.887-3.554-9.38-1.474-2.488-3.182-4.343-5.13-5.563-1.946-1.218-4.025-1.828-6.234-1.828-4.21 0-8.21 1.115-12 3.34-3.79 2.223-6.944 5.35-9.47 9.375zm-32.817 50.224c-5.602 5.604-12.896 8.403-21.878 8.403-5.287 0-9.964-1.01-14.03-3.02-4.07-2.01-7.506-4.78-10.306-8.326-2.8-3.54-4.915-7.82-6.342-12.84-1.426-5.02-2.14-10.544-2.14-16.568 0-6.026.714-11.546 2.14-16.567 1.428-5.02 3.54-9.33 6.343-12.923 2.8-3.59 6.235-6.392 10.305-8.402 4.067-2.004 8.744-3.01 14.03-3.01 5.284 0 9.96 1.006 14.03 3.01 4.07 2.01 7.504 4.81 10.305 8.405 2.8 3.596 4.94 7.9 6.42 12.924 1.48 5.02 2.22 10.54 2.22 16.565 0 14.163-3.7 24.944-11.097 32.34zm-21.8-.793c6.792 0 11.964-2.878 15.518-8.64 3.555-5.76 5.334-13.396 5.334-22.908 0-4.226-.4-8.27-1.195-12.128-.8-3.858-2.045-7.238-3.74-10.147-1.698-2.906-3.873-5.205-6.526-6.895-2.654-1.69-5.837-2.538-9.548-2.538-3.61 0-6.71.82-9.31 2.458-2.6 1.64-4.75 3.884-6.446 6.74-1.697 2.85-2.943 6.207-3.74 10.065-.796 3.86-1.19 8.006-1.19 12.445 0 4.44.394 8.56 1.192 12.365.792 3.805 2.01 7.135 3.66 9.99 1.64 2.852 3.79 5.098 6.44 6.736 2.652 1.64 5.835 2.457 9.55 2.457zM320.45 90.815c0-3.188-.45-6.352-1.35-9.488-.903-3.136-2.385-5.955-4.45-8.453-2.07-2.496-4.72-4.49-7.953-5.98-3.23-1.488-7.124-2.233-11.68-2.233-9.013 0-15.98 3.98-20.91 11.92-4.93 7.94-7.395 19.217-7.395 33.828 0 14.717 2.536 26.02 7.61 33.907 5.072 7.887 12.26 11.83 21.56 11.83 9.406 0 18.92-4.173 28.537-12.524 3.27 1.903 5.49 4.547 6.66 7.927-4.44 4.544-9.91 8.216-16.41 11.016-6.5 2.8-13.4 4.2-20.69 4.2-7.086 0-13.16-1.454-18.236-4.36-5.074-2.904-9.223-6.896-12.447-11.97-3.225-5.072-5.603-10.962-7.133-17.676-1.53-6.71-2.296-13.872-2.296-21.48 0-9.406 1.055-17.65 3.17-24.733 2.113-7.08 5.02-12.974 8.72-17.68 3.7-4.7 8.03-8.245 13-10.623 4.966-2.377 10.304-3.566 16.012-3.566s10.885.845 15.537 2.535c4.65 1.69 8.615 3.91 11.89 6.66 3.277 2.746 5.813 5.92 7.61 9.51 1.797 3.595 2.696 7.292 2.696 11.097 0 4.756-2.243 7.135-6.727 7.135-1.46 0-3.235-.263-5.32-.796"/>
    <path fill="#A60000" d="M235.74 75.896c-.68-15.542-7.286-30.825-19.663-42.166-6.077-5.568-12.98-9.665-20.273-12.315-7.29-2.658-15.21-3.956-23.447-3.597-16.77.732-31.655 8.192-42.166 19.662-10.5 11.47-16.59 25.09-15.91 43.72 1.86 50.655 21.83 104.234 21.83 104.234s49.74-28.207 83.72-65.818c12.5-13.832 16.59-28.178 15.918-43.72zm-43.605 9.13c-3.458 9.503-13.965 14.403-23.467 10.945-9.502-3.45-14.402-13.96-10.944-23.46 3.46-9.5 13.966-14.4 23.47-10.94 9.5 3.46 14.4 13.966 10.94 23.467z"/>
    <path fill="#B31212" d="M123.155 23.663C110.945 10.34 93.655 1.676 74.177.823 64.61.408 55.41 1.917 46.94 5.003c-8.468 3.08-16.488 7.838-23.546 14.305C9.018 32.48 1.344 50.233.554 68.285c-.787 18.054 3.968 34.717 18.484 50.783 39.474 43.688 97.246 76.452 97.246 76.452s23.196-62.235 25.354-121.074c.792-21.64-6.276-37.46-18.483-50.783zm-44.693 67.94c-11.038 4.018-23.24-1.674-27.258-12.71-4.017-11.038 1.673-23.242 12.71-27.26 11.037-4.017 23.242 1.674 27.26 12.71 4.016 11.04-1.675 23.242-12.712 27.26z"/>
    <path fill="maroon" d="M141.638 74.446c.572-15.596-2.958-28.16-9.536-38.955-.65.65-1.29 1.32-1.91 1.99-10.51 11.47-16.596 25.09-15.913 43.72 1.03 28.24 7.69 57.38 13.39 77.65 6.21-23.11 12.86-54.2 13.96-84.4"/>
  </g>
</svg>
