<?xml version="1.0" encoding="UTF-8" standalone="no"?>
<svg width="726px" height="164px" viewBox="0 0 726 164" version="1.1" xmlns="http://www.w3.org/2000/svg" xmlns:xlink="http://www.w3.org/1999/xlink">
<path d="M684.746,130.892 L684.746,156.632 C684.746,158.972 684.399,160.64 683.706,161.637 C683.012,162.632 681.626,163.132 679.547,163.132 L676.036,163.132 L675.257,162.352 L675.257,71.742 L676.036,70.962 L679.416,70.962 C681.496,70.962 682.904,71.504 683.642,72.587 C684.377,73.671 684.746,75.427 684.746,77.852 L684.746,78.502 C689.946,72.697 696.142,69.793 703.336,69.793 C710.702,69.793 716.249,72.762 719.977,78.697 C723.702,84.634 725.566,92.847 725.566,103.332 C725.566,108.447 724.894,113.04 723.552,117.112 C722.207,121.187 720.432,124.631 718.222,127.447 C716.012,130.264 713.477,132.432 710.616,133.947 C707.757,135.462 704.809,136.222 701.776,136.222 C695.797,136.222 690.119,134.447 684.746,130.892 L684.746,130.892 Z M684.746,88.668 L684.746,122.165 C690.012,126.078 694.974,128.032 699.634,128.032 C704.293,128.032 708.134,125.948 711.154,121.776 C714.175,117.606 715.687,111.307 715.687,102.877 C715.687,98.707 715.318,95.08 714.586,91.994 C713.852,88.911 712.881,86.347 711.673,84.303 C710.464,82.262 709.063,80.741 707.466,79.741 C705.869,78.742 704.165,78.242 702.354,78.242 C698.9,78.242 695.62,79.156 692.514,80.98 C689.406,82.804 686.818,85.368 684.746,88.668 L684.746,88.668 Z" fill="#333333"></path>
<path d="M660.308,127.642 L665.768,127.642 C666.112,128.434 666.353,129.316 666.482,130.285 C666.612,131.253 666.677,132.133 666.677,132.925 C666.677,133.454 666.655,133.872 666.612,134.181 C666.567,134.49 666.547,134.733 666.547,134.908 C665.16,135.172 663.817,135.391 662.518,135.568 C661.217,135.743 659.917,135.832 658.617,135.832 C655.062,135.832 652.072,135.032 649.648,133.427 C647.22,131.825 646.007,128.987 646.007,124.913 L646.007,40.413 L646.787,39.632 L650.297,39.632 C652.377,39.632 653.763,40.129 654.457,41.125 C655.149,42.121 655.497,43.786 655.497,46.122 L655.497,122.06 C655.497,125.782 657.1,127.642 660.308,127.642" fill="#333333"></path>
<path d="M634.309,106.192 L594.009,106.192 C594.441,120.927 600.031,128.293 610.778,128.293 C616.671,128.293 622.954,126.472 629.628,122.832 C631.534,124.567 632.704,126.777 633.139,129.462 C626.031,134.317 618.059,136.742 609.219,136.742 C604.711,136.742 600.854,135.897 597.648,134.207 C594.441,132.517 591.818,130.177 589.783,127.187 C587.746,124.197 586.251,120.667 585.299,116.592 C584.344,112.519 583.868,108.057 583.868,103.202 C583.868,98.262 584.453,93.756 585.623,89.682 C586.793,85.61 588.504,82.099 590.759,79.152 C593.011,76.207 595.719,73.91 598.884,72.262 C602.046,70.617 605.664,69.793 609.738,69.793 C613.724,69.793 617.299,70.507 620.464,71.937 C623.626,73.367 626.269,75.317 628.394,77.788 C630.516,80.257 632.141,83.205 633.269,86.627 C634.394,90.052 634.958,93.712 634.958,97.612 C634.958,99.172 634.894,100.667 634.764,102.097 C634.634,103.527 634.481,104.892 634.309,106.192 L634.309,106.192 Z M594.009,98.782 L625.078,98.782 L625.078,97.092 C625.078,91.112 623.825,86.302 621.322,82.663 C618.82,79.022 615.066,77.202 610.062,77.202 C605.142,77.202 601.321,79.152 598.604,83.052 C595.886,86.952 594.354,92.197 594.009,98.782 L594.009,98.782 Z" fill="#333333"></path>
<path d="M571.26,90.722 L571.26,122.832 C571.26,127.772 571.78,131.457 572.82,133.882 C571.346,135.267 569.31,135.962 566.71,135.962 C563.415,135.962 561.771,133.839 561.771,129.592 L561.771,93.712 C561.771,88.427 561.075,84.677 559.69,82.467 C558.303,80.257 555.875,79.152 552.41,79.152 C548.942,79.152 545.346,80.085 541.62,81.947 C537.893,83.812 534.773,86.217 532.26,89.163 L532.26,135.182 C530.96,135.442 529.356,135.572 527.45,135.572 C525.63,135.572 524.07,135.442 522.771,135.182 L522.771,40.413 L523.55,39.632 L527.061,39.632 C529.14,39.632 530.525,40.131 531.22,41.127 C531.913,42.124 532.26,43.792 532.26,46.132 L532.26,79.672 C535.205,76.9 538.673,74.647 542.66,72.913 C546.646,71.179 550.633,70.312 554.62,70.312 C560.426,70.312 564.65,72.197 567.295,75.967 C569.937,79.737 571.26,84.657 571.26,90.722" fill="#333333"></path>
<path d="M508.601,90.592 L508.601,122.832 C508.601,127.772 509.075,131.457 510.03,133.882 C508.643,135.267 506.606,135.962 503.92,135.962 C500.625,135.962 498.981,133.839 498.981,129.592 L498.981,93.582 C498.981,88.296 498.33,84.547 497.03,82.337 C495.731,80.127 493.26,79.022 489.62,79.022 C486.152,79.022 482.556,79.955 478.83,81.817 C475.103,83.682 471.982,86.086 469.47,89.032 L469.47,135.182 C468.17,135.442 466.565,135.572 464.66,135.572 C462.753,135.572 461.15,135.442 459.851,135.182 L459.851,71.742 L460.63,70.962 L464.271,70.962 C466.351,70.962 467.735,71.504 468.43,72.587 C469.123,73.671 469.47,75.382 469.47,77.722 L469.47,79.543 C472.415,76.769 475.883,74.538 479.87,72.847 C483.856,71.157 487.843,70.312 491.83,70.312 C497.636,70.312 501.883,72.177 504.57,75.902 C507.256,79.629 508.601,84.527 508.601,90.592" fill="#333333"></path>
<path d="M447.762,106.192 L407.462,106.192 C407.894,120.927 413.484,128.293 424.231,128.293 C430.124,128.293 436.407,126.472 443.081,122.832 C444.987,124.567 446.157,126.777 446.592,129.462 C439.484,134.317 431.512,136.742 422.672,136.742 C418.164,136.742 414.307,135.897 411.102,134.207 C407.894,132.517 405.272,130.177 403.236,127.187 C401.199,124.197 399.704,120.667 398.752,116.592 C397.797,112.519 397.321,108.057 397.321,103.202 C397.321,98.262 397.906,93.756 399.076,89.682 C400.246,85.61 401.957,82.099 404.212,79.152 C406.464,76.207 409.172,73.91 412.337,72.262 C415.499,70.617 419.117,69.793 423.191,69.793 C427.177,69.793 430.752,70.507 433.917,71.937 C437.079,73.367 439.722,75.317 441.847,77.788 C443.969,80.257 445.594,83.205 446.722,86.627 C447.847,90.052 448.411,93.712 448.411,97.612 C448.411,99.172 448.347,100.667 448.217,102.097 C448.087,103.527 447.935,104.892 447.762,106.192 L447.762,106.192 Z M407.462,98.782 L438.531,98.782 L438.531,97.092 C438.531,91.112 437.278,86.302 434.775,82.663 C432.273,79.022 428.519,77.202 423.515,77.202 C418.595,77.202 414.774,79.152 412.057,83.052 C409.339,86.952 407.807,92.197 407.462,98.782 L407.462,98.782 Z" fill="#333333"></path>
<path d="M349.353,130.892 L349.353,156.632 C349.353,158.972 349.006,160.64 348.313,161.637 C347.618,162.632 346.232,163.132 344.153,163.132 L340.643,163.132 L339.863,162.352 L339.863,71.742 L340.643,70.962 L344.023,70.962 C346.103,70.962 347.511,71.504 348.248,72.587 C348.983,73.671 349.353,75.427 349.353,77.852 L349.353,78.502 C354.553,72.697 360.748,69.793 367.942,69.793 C375.309,69.793 380.856,72.762 384.583,78.697 C388.309,84.634 390.173,92.847 390.173,103.332 C390.173,108.447 389.501,113.04 388.158,117.112 C386.814,121.187 385.038,124.631 382.828,127.447 C380.618,130.264 378.083,132.432 375.223,133.947 C372.363,135.462 369.415,136.222 366.383,136.222 C360.403,136.222 354.726,134.447 349.353,130.892 L349.353,130.892 Z M349.353,88.668 L349.353,122.165 C354.618,126.078 359.58,128.032 364.24,128.032 C368.899,128.032 372.74,125.948 375.761,121.776 C378.781,117.606 380.293,111.307 380.293,102.877 C380.293,98.707 379.925,95.08 379.192,91.994 C378.459,88.911 377.487,86.347 376.279,84.303 C375.07,82.262 373.669,80.741 372.072,79.741 C370.476,78.742 368.771,78.242 366.96,78.242 C363.507,78.242 360.227,79.156 357.12,80.98 C354.013,82.804 351.425,85.368 349.353,88.668 L349.353,88.668 Z" fill="#333333"></path>
<path d="M322.443,129.852 C317.849,134.447 311.868,136.742 304.503,136.742 C300.168,136.742 296.333,135.917 292.998,134.272 C289.661,132.626 286.844,130.352 284.548,127.447 C282.251,124.544 280.518,121.035 279.348,116.917 C278.178,112.802 277.593,108.272 277.593,103.332 C277.593,98.392 278.178,93.865 279.348,89.748 C280.518,85.631 282.251,82.099 284.548,79.152 C286.844,76.207 289.661,73.91 292.998,72.262 C296.333,70.617 300.168,69.793 304.503,69.793 C308.836,69.793 312.671,70.617 316.008,72.262 C319.344,73.91 322.161,76.207 324.458,79.152 C326.753,82.099 328.509,85.631 329.723,89.748 C330.936,93.865 331.543,98.392 331.543,103.332 C331.543,114.947 328.509,123.787 322.443,129.852 L322.443,129.852 Z M304.568,129.202 C310.136,129.202 314.377,126.842 317.292,122.117 C320.204,117.394 321.663,111.132 321.663,103.332 C321.663,99.867 321.336,96.552 320.684,93.387 C320.03,90.224 319.008,87.452 317.617,85.067 C316.226,82.684 314.442,80.799 312.267,79.413 C310.091,78.027 307.481,77.332 304.438,77.332 C301.479,77.332 298.934,78.004 296.803,79.347 C294.67,80.692 292.908,82.532 291.518,84.873 C290.126,87.212 289.104,89.964 288.452,93.127 C287.798,96.292 287.473,99.692 287.473,103.332 C287.473,106.972 287.798,110.352 288.452,113.472 C289.104,116.592 290.104,119.322 291.452,121.663 C292.801,124.002 294.562,125.844 296.737,127.187 C298.911,128.532 301.521,129.202 304.568,129.202 L304.568,129.202 Z" fill="#333333"></path>
<path d="M262.774,74.468 C262.774,71.854 262.405,69.26 261.666,66.688 C260.926,64.117 259.71,61.805 258.016,59.757 C256.319,57.71 254.146,56.075 251.495,54.854 C248.845,53.633 245.651,53.022 241.914,53.022 C234.524,53.022 228.811,56.278 224.768,62.79 C220.726,69.302 218.705,78.546 218.705,90.527 C218.705,102.595 220.784,111.864 224.944,118.331 C229.104,124.798 234.997,128.032 242.625,128.032 C250.337,128.032 258.138,124.61 266.024,117.762 C268.71,119.322 270.53,121.49 271.484,124.262 C267.845,127.99 263.359,131.001 258.029,133.297 C252.699,135.592 247.045,136.742 241.065,136.742 C235.257,136.742 230.274,135.549 226.114,133.168 C221.955,130.785 218.553,127.512 215.909,123.352 C213.265,119.192 211.315,114.362 210.06,108.857 C208.803,103.354 208.175,97.482 208.175,91.242 C208.175,83.53 209.04,76.769 210.774,70.962 C212.507,65.157 214.89,60.325 217.925,56.467 C220.957,52.612 224.51,49.707 228.585,47.757 C232.657,45.807 237.034,44.832 241.715,44.832 C246.395,44.832 250.64,45.527 254.455,46.913 C258.268,48.299 261.518,50.12 264.205,52.373 C266.89,54.626 268.97,57.227 270.444,60.172 C271.917,63.12 272.654,66.152 272.654,69.272 C272.654,73.172 270.815,75.123 267.138,75.123 C265.94,75.123 264.485,74.905 262.774,74.468" fill="#333333"></path>
<path d="M193.306,62.235 C192.75,49.49 187.332,36.958 177.183,27.659 C172.2,23.093 166.539,19.733 160.559,17.56 C154.581,15.381 148.086,14.316 141.333,14.611 C127.582,15.211 115.376,21.328 106.757,30.734 C98.139,40.139 93.149,51.308 93.709,66.583 C95.232,108.121 111.607,152.056 111.607,152.056 C111.607,152.056 152.392,128.926 180.258,98.085 C190.506,86.743 193.863,74.979 193.306,62.235 L193.306,62.235 Z M157.551,69.722 C154.715,77.514 146.099,81.532 138.308,78.696 C130.516,75.86 126.498,67.244 129.334,59.452 C132.17,51.661 140.786,47.643 148.578,50.479 C156.37,53.315 160.387,61.931 157.551,69.722 L157.551,69.722 Z" fill="#A60000"></path>
<path d="M100.987,19.404 C90.976,8.479 76.798,1.374 60.825,0.676 C52.981,0.334 45.436,1.571 38.492,4.102 C31.547,6.627 24.971,10.529 19.183,15.832 C7.395,26.634 1.102,41.191 0.455,55.994 C-0.191,70.798 3.708,84.462 15.611,97.636 C47.98,133.46 95.353,160.326 95.353,160.326 C95.353,160.326 114.374,109.294 116.143,61.046 C116.793,43.302 110.997,30.329 100.987,19.404 L100.987,19.404 Z M64.339,75.115 C55.288,78.409 45.281,73.742 41.987,64.692 C38.693,55.641 43.359,45.634 52.41,42.339 C61.46,39.045 71.468,43.712 74.762,52.762 C78.056,61.813 73.389,71.82 64.339,75.115 L64.339,75.115 Z" fill="#B31212"></path>
<path d="M116.143,61.046 C116.612,48.257 113.718,37.955 108.324,29.103 C107.791,29.635 107.267,30.178 106.757,30.734 C98.139,40.139 93.149,51.308 93.709,66.583 C94.558,89.738 100.021,113.634 104.691,130.253 C109.784,111.299 115.235,85.807 116.143,61.046" fill="#800000"></path>
</svg>